<svg xmlns="http://www.w3.org/2000/svg" viewBox="288.09 625.34 150.63 134.31" data-mm-w="76.00" data-mm-h="67.76" style="width:calc(var(--sg-mm) * 76.00);height:auto" preserveAspectRatio="xMidYMid meet" role="img"><defs><clipPath id="clip-48">
<path clip-rule="nonzero" d="M 338 716 L 361 716 L 361 738 L 338 738 Z M 338 716 "/>
</clipPath><clipPath id="clip-49">
<path clip-rule="evenodd" d="M 351.636719 711.898438 C 358.75 711.898438 364.519531 717.667969 364.519531 724.78125 C 364.519531 731.894531 358.75 737.664062 351.636719 737.664062 C 344.519531 737.664062 338.753906 731.894531 338.753906 724.78125 C 338.753906 717.667969 344.519531 711.898438 351.636719 711.898438 "/>
</clipPath><clipPath id="clip-50">
<path clip-rule="nonzero" d="M 338 712 L 364 712 L 364 738 L 338 738 Z M 338 712 "/>
</clipPath><clipPath id="clip-51">
<path clip-rule="evenodd" d="M 351.636719 711.898438 C 358.75 711.898438 364.519531 717.667969 364.519531 724.78125 C 364.519531 731.894531 358.75 737.664062 351.636719 737.664062 C 344.519531 737.664062 338.753906 731.894531 338.753906 724.78125 C 338.753906 717.667969 344.519531 711.898438 351.636719 711.898438 "/>
</clipPath><clipPath id="clip-52">
<path clip-rule="nonzero" d="M 338 711.535156 L 365 711.535156 L 365 738 L 338 738 Z M 338 711.535156 "/>
</clipPath><clipPath id="clip-53">
<path clip-rule="evenodd" d="M 351.636719 711.898438 C 358.75 711.898438 364.519531 717.667969 364.519531 724.78125 C 364.519531 731.894531 358.75 737.664062 351.636719 737.664062 C 344.519531 737.664062 338.753906 731.894531 338.753906 724.78125 C 338.753906 717.667969 344.519531 711.898438 351.636719 711.898438 "/>
</clipPath><clipPath id="clip-54">
<path clip-rule="nonzero" d="M 340 711.535156 L 365 711.535156 L 365 736 L 340 736 Z M 340 711.535156 "/>
</clipPath><clipPath id="clip-55">
<path clip-rule="evenodd" d="M 351.636719 711.898438 C 358.75 711.898438 364.519531 717.667969 364.519531 724.78125 C 364.519531 731.894531 358.75 737.664062 351.636719 737.664062 C 344.519531 737.664062 338.753906 731.894531 338.753906 724.78125 C 338.753906 717.667969 344.519531 711.898438 351.636719 711.898438 "/>
</clipPath><clipPath id="clip-56">
<path clip-rule="nonzero" d="M 344 711.535156 L 365 711.535156 L 365 732 L 344 732 Z M 344 711.535156 "/>
</clipPath><clipPath id="clip-57">
<path clip-rule="evenodd" d="M 351.636719 711.898438 C 358.75 711.898438 364.519531 717.667969 364.519531 724.78125 C 364.519531 731.894531 358.75 737.664062 351.636719 737.664062 C 344.519531 737.664062 338.753906 731.894531 338.753906 724.78125 C 338.753906 717.667969 344.519531 711.898438 351.636719 711.898438 "/>
</clipPath><clipPath id="clip-58">
<path clip-rule="nonzero" d="M 348 711.535156 L 365 711.535156 L 365 729 L 348 729 Z M 348 711.535156 "/>
</clipPath><clipPath id="clip-59">
<path clip-rule="evenodd" d="M 351.636719 711.898438 C 358.75 711.898438 364.519531 717.667969 364.519531 724.78125 C 364.519531 731.894531 358.75 737.664062 351.636719 737.664062 C 344.519531 737.664062 338.753906 731.894531 338.753906 724.78125 C 338.753906 717.667969 344.519531 711.898438 351.636719 711.898438 "/>
</clipPath><clipPath id="clip-84">
<path clip-rule="nonzero" d="M 338 680 L 361 680 L 361 702 L 338 702 Z M 338 680 "/>
</clipPath><clipPath id="clip-85">
<path clip-rule="evenodd" d="M 351.636719 675.824219 C 358.75 675.824219 364.519531 681.589844 364.519531 688.707031 C 364.519531 695.820312 358.75 701.585938 351.636719 701.585938 C 344.519531 701.585938 338.753906 695.820312 338.753906 688.707031 C 338.753906 681.589844 344.519531 675.824219 351.636719 675.824219 "/>
</clipPath><clipPath id="clip-86">
<path clip-rule="nonzero" d="M 338 676 L 364 676 L 364 702 L 338 702 Z M 338 676 "/>
</clipPath><clipPath id="clip-87">
<path clip-rule="evenodd" d="M 351.636719 675.824219 C 358.75 675.824219 364.519531 681.589844 364.519531 688.707031 C 364.519531 695.820312 358.75 701.585938 351.636719 701.585938 C 344.519531 701.585938 338.753906 695.820312 338.753906 688.707031 C 338.753906 681.589844 344.519531 675.824219 351.636719 675.824219 "/>
</clipPath><clipPath id="clip-88">
<path clip-rule="nonzero" d="M 338 675.578125 L 365 675.578125 L 365 702 L 338 702 Z M 338 675.578125 "/>
</clipPath><clipPath id="clip-89">
<path clip-rule="evenodd" d="M 351.636719 675.824219 C 358.75 675.824219 364.519531 681.589844 364.519531 688.707031 C 364.519531 695.820312 358.75 701.585938 351.636719 701.585938 C 344.519531 701.585938 338.753906 695.820312 338.753906 688.707031 C 338.753906 681.589844 344.519531 675.824219 351.636719 675.824219 "/>
</clipPath><clipPath id="clip-90">
<path clip-rule="nonzero" d="M 340 675.578125 L 365 675.578125 L 365 700 L 340 700 Z M 340 675.578125 "/>
</clipPath><clipPath id="clip-91">
<path clip-rule="evenodd" d="M 351.636719 675.824219 C 358.75 675.824219 364.519531 681.589844 364.519531 688.707031 C 364.519531 695.820312 358.75 701.585938 351.636719 701.585938 C 344.519531 701.585938 338.753906 695.820312 338.753906 688.707031 C 338.753906 681.589844 344.519531 675.824219 351.636719 675.824219 "/>
</clipPath><clipPath id="clip-92">
<path clip-rule="nonzero" d="M 344 675.578125 L 365 675.578125 L 365 696 L 344 696 Z M 344 675.578125 "/>
</clipPath><clipPath id="clip-93">
<path clip-rule="evenodd" d="M 351.636719 675.824219 C 358.75 675.824219 364.519531 681.589844 364.519531 688.707031 C 364.519531 695.820312 358.75 701.585938 351.636719 701.585938 C 344.519531 701.585938 338.753906 695.820312 338.753906 688.707031 C 338.753906 681.589844 344.519531 675.824219 351.636719 675.824219 "/>
</clipPath><clipPath id="clip-94">
<path clip-rule="nonzero" d="M 348 675.578125 L 365 675.578125 L 365 693 L 348 693 Z M 348 675.578125 "/>
</clipPath><clipPath id="clip-95">
<path clip-rule="evenodd" d="M 351.636719 675.824219 C 358.75 675.824219 364.519531 681.589844 364.519531 688.707031 C 364.519531 695.820312 358.75 701.585938 351.636719 701.585938 C 344.519531 701.585938 338.753906 695.820312 338.753906 688.707031 C 338.753906 681.589844 344.519531 675.824219 351.636719 675.824219 "/>
</clipPath></defs><path fill-rule="evenodd" fill="#ffffff" fill-opacity="1" stroke-width="0.85" vector-effect="non-scaling-stroke" stroke-linecap="butt" stroke-linejoin="miter" stroke="#19424e" stroke-opacity="1" stroke-miterlimit="22.925586" d="M 334.081836 134.885518 L 334.081836 206.319998 L 298.366552 206.319998 L 298.366552 97.183443 L 330.112168 97.183443 L 330.112168 100.159717 L 334.081836 100.159717 L 334.081836 126.950091 L 309.278252 126.950091 L 309.278252 134.885518 Z M 334.081836 134.885518 " transform="matrix(0.998785, 0, 0, -0.998785, 0.000000000000012657, 841.323135)"/><path fill-rule="evenodd" fill="#26343b" fill-opacity="1" stroke-width="0.85" vector-effect="non-scaling-stroke" stroke-linecap="butt" stroke-linejoin="miter" stroke="#19424e" stroke-opacity="1" stroke-miterlimit="22.925586" d="M 395.601923 148.593585 L 395.601923 156.529011 L 409.489896 156.529011 L 409.489896 160.048915 C 409.485985 159.865097 409.360833 159.708657 409.180927 159.669547 C 408.99711 159.626526 408.809382 159.732123 408.731162 159.904207 L 405.883951 159.904207 C 405.825286 159.7595 405.680579 159.665636 405.524139 159.661725 C 405.367699 159.661725 405.222991 159.7595 405.160415 159.904207 L 400.924799 159.904207 C 400.862222 159.7595 400.721426 159.665636 400.561075 159.661725 C 400.404635 159.661725 400.259928 159.7595 400.197352 159.904207 L 395.965646 159.904207 C 395.90307 159.7595 395.758363 159.665636 395.601923 159.661725 C 395.445483 159.661725 395.300775 159.7595 395.238199 159.904207 L 391.632254 159.904207 L 391.632254 154.761238 L 390.32989 154.010325 C 389.676752 155.144516 388.339189 155.695968 387.072024 155.35571 C 385.80877 155.019364 384.928794 153.869529 384.928794 152.559343 C 384.928794 151.249156 385.80877 150.103232 387.075935 149.762975 C 388.339189 149.422718 389.676752 149.97808 390.32989 151.112271 L 391.632254 150.361359 L 391.632254 145.218389 L 395.238199 145.218389 C 395.300775 145.363096 395.441572 145.45696 395.598012 145.45696 C 395.758363 145.45696 395.899159 145.363096 395.965646 145.218389 L 400.197352 145.218389 C 400.259928 145.363096 400.404635 145.45696 400.561075 145.45696 C 400.717515 145.45696 400.862222 145.363096 400.924799 145.218389 L 405.160415 145.218389 C 405.222991 145.363096 405.363788 145.45696 405.520228 145.45696 C 405.676668 145.45696 405.821375 145.363096 405.883951 145.218389 L 408.731162 145.218389 C 408.80156 145.390473 408.985377 145.488248 409.169194 145.453049 C 409.353011 145.41785 409.485985 145.245766 409.489896 145.061949 L 409.489896 148.593585 Z M 395.601923 148.593585 " transform="matrix(0.998785, 0, 0, -0.998785, 0.000000000000012657, 841.323135)"/><path fill-rule="evenodd" fill="#26343b" fill-opacity="1" stroke-width="0.85" vector-effect="non-scaling-stroke" stroke-linecap="butt" stroke-linejoin="miter" stroke="#19424e" stroke-opacity="1" stroke-miterlimit="22.925586" d="M 395.601923 111.834062 L 395.601923 119.769489 L 409.489896 119.769489 L 409.489896 123.293303 C 409.485985 123.109486 409.360833 122.960868 409.180927 122.921758 C 408.99711 122.878737 408.809382 122.972601 408.731162 123.144685 L 405.883951 123.144685 C 405.821375 122.999978 405.680579 122.906114 405.524139 122.906114 C 405.363788 122.906114 405.222991 122.999978 405.160415 123.144685 L 400.924799 123.144685 C 400.862222 122.999978 400.721426 122.906114 400.561075 122.906114 C 400.404635 122.906114 400.259928 122.999978 400.197352 123.144685 L 395.965646 123.144685 C 395.90307 122.999978 395.758363 122.906114 395.601923 122.906114 C 395.445483 122.906114 395.300775 122.999978 395.238199 123.144685 L 391.632254 123.144685 L 391.632254 118.001715 L 390.32989 117.250802 C 389.676752 118.388904 388.339189 118.940356 387.072024 118.60401 C 385.804859 118.263752 384.924883 117.113917 384.924883 115.803731 C 384.924883 114.489634 385.804859 113.34371 387.072024 113.003453 C 388.339189 112.663195 389.676752 113.218558 390.32989 114.352749 L 391.632254 113.601836 L 391.632254 108.462777 L 395.238199 108.462777 C 395.300775 108.607485 395.441572 108.697438 395.598012 108.697438 C 395.758363 108.697438 395.899159 108.607485 395.965646 108.462777 L 400.197352 108.462777 C 400.259928 108.607485 400.400724 108.697438 400.561075 108.697438 C 400.717515 108.697438 400.862222 108.607485 400.924799 108.462777 L 405.160415 108.462777 C 405.222991 108.607485 405.363788 108.697438 405.520228 108.697438 C 405.680579 108.697438 405.821375 108.607485 405.883951 108.462777 L 408.731162 108.462777 C 408.80156 108.634862 408.985377 108.724815 409.169194 108.689616 C 409.353011 108.650506 409.489896 108.490154 409.489896 108.302426 L 409.489896 111.834062 Z M 395.601923 111.834062 " transform="matrix(0.998785, 0, 0, -0.998785, 0.000000000000012657, 841.323135)"/><path fill-rule="evenodd" fill="#c3d8e2" fill-opacity="1" stroke-width="0.85" vector-effect="non-scaling-stroke" stroke-linecap="butt" stroke-linejoin="miter" stroke="#19424e" stroke-opacity="1" stroke-miterlimit="22.925586" d="M 395.601923 111.834062 L 429.334329 111.834062 L 429.334329 119.769489 L 395.601923 119.769489 Z M 395.601923 111.834062 " transform="matrix(0.998785, 0, 0, -0.998785, 0.000000000000012657, 841.323135)"/><path fill-rule="evenodd" fill="#c3d8e2" fill-opacity="1" stroke-width="0.85" vector-effect="non-scaling-stroke" stroke-linecap="butt" stroke-linejoin="miter" stroke="#19424e" stroke-opacity="1" stroke-miterlimit="22.925586" d="M 409.489896 148.593585 L 429.334329 148.593585 L 429.334329 156.529011 L 395.601923 156.529011 L 395.601923 148.593585 Z M 409.489896 148.593585 " transform="matrix(0.998785, 0, 0, -0.998785, 0.000000000000012657, 841.323135)"/><path fill="none" stroke-width="0.85" vector-effect="non-scaling-stroke" stroke-linecap="butt" stroke-linejoin="bevel" stroke="#19424e" stroke-opacity="1" stroke-miterlimit="22.925586" d="M 400.197352 108.462777 L 395.965646 108.462777 C 395.899159 108.607485 395.758363 108.697438 395.598012 108.697438 C 395.441572 108.697438 395.300775 108.607485 395.238199 108.462777 L 391.632254 108.462777 L 391.632254 113.601836 L 390.32989 114.352749 C 389.676752 113.218558 388.339189 112.663195 387.072024 113.003453 C 385.804859 113.34371 384.924883 114.489634 384.924883 115.803731 C 384.924883 117.113917 385.804859 118.263752 387.072024 118.60401 C 388.339189 118.940356 389.676752 118.388904 390.32989 117.250802 L 391.632254 118.001715 L 391.632254 123.144685 L 395.238199 123.144685 C 395.300775 122.999978 395.445483 122.906114 395.601923 122.906114 C 395.758363 122.906114 395.90307 122.999978 395.965646 123.144685 L 400.197352 123.144685 C 400.259928 122.999978 400.404635 122.906114 400.561075 122.906114 C 400.721426 122.906114 400.862222 122.999978 400.924799 123.144685 L 405.160415 123.144685 C 405.222991 122.999978 405.363788 122.906114 405.524139 122.906114 C 405.680579 122.906114 405.821375 122.999978 405.883951 123.144685 L 408.731162 123.144685 C 408.809382 122.972601 408.99711 122.878737 409.180927 122.921758 C 409.364744 122.960868 409.493807 123.113397 409.489896 123.305036 L 409.489896 125.663371 L 384.349965 125.663371 L 384.349965 128.600535 L 380.302077 128.600535 L 380.302077 127.032222 L 382.367087 127.032222 L 382.367087 124.771662 L 371.791733 124.771662 L 371.791733 127.032222 L 373.852832 127.032222 L 373.852832 128.600535 L 369.804943 128.600535 L 369.804943 120.266186 L 372.32754 120.266186 L 372.32754 122.252976 L 381.948609 122.252976 L 381.948609 109.354486 L 372.32754 109.354486 L 372.32754 111.337365 L 369.804943 111.337365 L 369.804943 103.003016 L 373.852832 103.003016 L 373.852832 104.571329 L 371.791733 104.571329 L 371.791733 106.8358 L 382.367087 106.8358 L 382.367087 104.571329 L 380.302077 104.571329 L 380.302077 103.003016 L 384.349965 103.003016 L 384.349965 105.94018 L 409.489896 105.94018 L 409.489896 108.302426 C 409.489896 108.490154 409.353011 108.650506 409.169194 108.689616 C 408.985377 108.724815 408.80156 108.634862 408.731162 108.462777 L 405.883951 108.462777 C 405.821375 108.607485 405.680579 108.697438 405.520228 108.697438 C 405.363788 108.697438 405.222991 108.607485 405.160415 108.462777 L 400.924799 108.462777 C 400.862222 108.607485 400.717515 108.697438 400.561075 108.697438 C 400.400724 108.697438 400.259928 108.607485 400.197352 108.462777 Z M 400.197352 108.462777 " transform="matrix(0.998785, 0, 0, -0.998785, 0.000000000000012657, 841.323135)"/><path fill="none" stroke-width="0.85" vector-effect="non-scaling-stroke" stroke-linecap="butt" stroke-linejoin="bevel" stroke="#19424e" stroke-opacity="1" stroke-miterlimit="22.925586" d="M 400.197352 159.904207 L 395.965646 159.904207 C 395.90307 159.7595 395.758363 159.665636 395.601923 159.661725 C 395.445483 159.661725 395.300775 159.7595 395.238199 159.904207 L 391.632254 159.904207 L 391.632254 154.761238 L 390.32989 154.010325 C 389.676752 155.144516 388.339189 155.695968 387.072024 155.35571 C 385.80877 155.019364 384.928794 153.869529 384.928794 152.559343 C 384.928794 151.249156 385.80877 150.103232 387.075935 149.762975 C 388.339189 149.422718 389.676752 149.97808 390.32989 151.112271 L 391.632254 150.361359 L 391.632254 145.218389 L 395.238199 145.218389 C 395.300775 145.363096 395.441572 145.45696 395.598012 145.45696 C 395.758363 145.45696 395.899159 145.363096 395.965646 145.218389 L 400.197352 145.218389 C 400.259928 145.363096 400.404635 145.45696 400.561075 145.45696 C 400.717515 145.45696 400.862222 145.363096 400.924799 145.218389 L 405.160415 145.218389 C 405.222991 145.363096 405.363788 145.45696 405.520228 145.45696 C 405.676668 145.45696 405.821375 145.363096 405.883951 145.218389 L 408.731162 145.218389 C 408.80156 145.390473 408.985377 145.488248 409.169194 145.453049 C 409.353011 145.41785 409.485985 145.245766 409.489896 145.061949 L 409.489896 142.699703 L 384.349965 142.699703 L 384.349965 139.762539 L 380.302077 139.762539 L 380.302077 141.330851 L 382.367087 141.330851 L 382.367087 143.591411 L 371.791733 143.591411 L 371.791733 141.330851 L 373.852832 141.330851 L 373.852832 139.762539 L 369.804943 139.762539 L 369.804943 148.096888 L 372.32754 148.096888 L 372.32754 146.110098 L 381.948609 146.110098 L 381.948609 159.008588 L 372.32754 159.008588 L 372.32754 157.025709 L 369.804943 157.025709 L 369.804943 165.360057 L 373.852832 165.360057 L 373.852832 163.791745 L 371.791733 163.791745 L 371.791733 161.531185 L 382.367087 161.531185 L 382.367087 163.791745 L 380.302077 163.791745 L 380.302077 165.360057 L 384.349965 165.360057 L 384.349965 162.422894 L 409.489896 162.422894 L 409.489896 160.060648 C 409.493807 159.872919 409.364744 159.708657 409.180927 159.669547 C 408.99711 159.626526 408.809382 159.732123 408.731162 159.904207 L 405.883951 159.904207 C 405.825286 159.7595 405.680579 159.665636 405.524139 159.661725 C 405.367699 159.661725 405.222991 159.7595 405.160415 159.904207 L 400.924799 159.904207 C 400.862222 159.7595 400.721426 159.665636 400.561075 159.661725 C 400.404635 159.661725 400.259928 159.7595 400.197352 159.904207 Z M 400.197352 159.904207 " transform="matrix(0.998785, 0, 0, -0.998785, 0.000000000000012657, 841.323135)"/><path fill="none" stroke-width="0.85" vector-effect="non-scaling-stroke" stroke-linecap="butt" stroke-linejoin="bevel" stroke="#19424e" stroke-opacity="1" stroke-miterlimit="22.925586" d="M 340.034384 103.218122 L 342.017263 103.218122 L 342.017263 100.159717 L 383.689006 100.159717 L 383.689006 97.183443 L 371.783911 94.207169 L 363.844574 94.207169 L 363.844574 97.183443 L 330.112168 97.183443 L 330.112168 100.159717 L 334.081836 100.159717 L 334.081836 128.534048 L 331.105563 131.510321 L 328.129289 131.510321 L 328.129289 127.939575 L 326.142499 127.939575 L 326.142499 131.510321 L 314.233493 131.510321 L 313.639021 130.915849 L 315.766607 128.788263 C 315.911314 128.647467 315.954335 128.432362 315.876115 128.248544 C 315.801806 128.060816 315.617989 127.939575 315.414616 127.939575 L 313.24792 127.939575 L 310.271647 130.915849 L 313.24792 133.892123 L 334.081836 133.892123 L 334.081836 170.898038 L 383.689006 170.898038 L 383.689006 167.921765 L 342.017263 167.921765 L 342.017263 164.867271 L 340.034384 164.867271 L 340.034384 167.921765 L 337.05811 167.921765 L 337.05811 137.017014 L 340.034384 137.017014 L 340.034384 140.075419 L 342.017263 140.075419 L 342.017263 137.017014 L 383.689006 137.017014 L 383.689006 134.040741 L 380.712732 131.064467 L 363.844574 131.064467 L 363.844574 134.040741 L 342.017263 134.040741 L 342.017263 128.009973 L 340.034384 128.009973 L 340.034384 130.986247 L 337.05811 130.986247 L 337.05811 100.159717 L 340.034384 100.159717 Z M 340.034384 103.218122 " transform="matrix(0.998785, 0, 0, -0.998785, 0.000000000000012657, 841.323135)"/><g clip-path="url(#clip-48)"><g clip-path="url(#clip-49)"><path fill="none" stroke-width="0.85" vector-effect="non-scaling-stroke" stroke-linecap="butt" stroke-linejoin="miter" stroke="#19424e" stroke-opacity="1" stroke-miterlimit="10.000001" d="M 355.455471 91.692394 L 327.374465 119.769489 " transform="matrix(0.998785, 0, 0, -0.998785, 0.000000000000012657, 841.323135)"/></g></g><g clip-path="url(#clip-50)"><g clip-path="url(#clip-51)"><path fill="none" stroke-width="0.85" vector-effect="non-scaling-stroke" stroke-linecap="butt" stroke-linejoin="miter" stroke="#19424e" stroke-opacity="1" stroke-miterlimit="10.000001" d="M 359.276521 95.509534 L 331.195516 123.590539 " transform="matrix(0.998785, 0, 0, -0.998785, 0.000000000000012657, 841.323135)"/></g></g><g clip-path="url(#clip-52)"><g clip-path="url(#clip-53)"><path fill="none" stroke-width="0.85" vector-effect="non-scaling-stroke" stroke-linecap="butt" stroke-linejoin="miter" stroke="#19424e" stroke-opacity="1" stroke-miterlimit="10.000001" d="M 363.093661 99.326673 L 335.012655 127.407679 " transform="matrix(0.998785, 0, 0, -0.998785, 0.000000000000012657, 841.323135)"/></g><g clip-path="url(#clip-53)"><path fill="none" stroke-width="0.85" vector-effect="non-scaling-stroke" stroke-linecap="butt" stroke-linejoin="miter" stroke="#19424e" stroke-opacity="1" stroke-miterlimit="10.000001" d="M 366.9108 103.147724 L 338.829795 131.224818 " transform="matrix(0.998785, 0, 0, -0.998785, 0.000000000000012657, 841.323135)"/></g><g clip-path="url(#clip-53)"><path fill="none" stroke-width="0.85" vector-effect="non-scaling-stroke" stroke-linecap="butt" stroke-linejoin="miter" stroke="#19424e" stroke-opacity="1" stroke-miterlimit="10.000001" d="M 370.731851 106.964863 L 342.650845 135.045869 " transform="matrix(0.998785, 0, 0, -0.998785, 0.000000000000012657, 841.323135)"/></g></g><g clip-path="url(#clip-54)"><g clip-path="url(#clip-55)"><path fill="none" stroke-width="0.85" vector-effect="non-scaling-stroke" stroke-linecap="butt" stroke-linejoin="miter" stroke="#19424e" stroke-opacity="1" stroke-miterlimit="10.000001" d="M 374.54899 110.782002 L 346.467985 138.863008 " transform="matrix(0.998785, 0, 0, -0.998785, 0.000000000000012657, 841.323135)"/></g></g><g clip-path="url(#clip-56)"><g clip-path="url(#clip-57)"><path fill="none" stroke-width="0.85" vector-effect="non-scaling-stroke" stroke-linecap="butt" stroke-linejoin="miter" stroke="#19424e" stroke-opacity="1" stroke-miterlimit="10.000001" d="M 378.36613 114.603053 L 350.285124 142.680148 " transform="matrix(0.998785, 0, 0, -0.998785, 0.000000000000012657, 841.323135)"/></g></g><g clip-path="url(#clip-58)"><g clip-path="url(#clip-59)"><path fill="none" stroke-width="0.85" vector-effect="non-scaling-stroke" stroke-linecap="butt" stroke-linejoin="miter" stroke="#19424e" stroke-opacity="1" stroke-miterlimit="10.000001" d="M 382.183269 118.420192 L 354.106175 146.501198 " transform="matrix(0.998785, 0, 0, -0.998785, 0.000000000000012657, 841.323135)"/></g></g><path fill="none" stroke-width="0.85" vector-effect="non-scaling-stroke" stroke-linecap="butt" stroke-linejoin="miter" stroke="#19424e" stroke-opacity="1" stroke-miterlimit="22.925586" d="M 352.064631 129.582197 C 359.186568 129.582197 364.963121 123.805644 364.963121 116.683707 C 364.963121 109.561769 359.186568 103.785217 352.064631 103.785217 C 344.938782 103.785217 339.166141 109.561769 339.166141 116.683707 C 339.166141 123.805644 344.938782 129.582197 352.064631 129.582197 Z M 352.064631 129.582197 " transform="matrix(0.998785, 0, 0, -0.998785, 0.000000000000012657, 841.323135)"/><g clip-path="url(#clip-84)"><g clip-path="url(#clip-85)"><path fill="none" stroke-width="0.85" vector-effect="non-scaling-stroke" stroke-linecap="butt" stroke-linejoin="miter" stroke="#19424e" stroke-opacity="1" stroke-miterlimit="10.000001" d="M 355.455471 127.689271 L 327.374465 155.770277 " transform="matrix(0.998785, 0, 0, -0.998785, 0.000000000000012657, 841.323135)"/></g></g><g clip-path="url(#clip-86)"><g clip-path="url(#clip-87)"><path fill="none" stroke-width="0.85" vector-effect="non-scaling-stroke" stroke-linecap="butt" stroke-linejoin="miter" stroke="#19424e" stroke-opacity="1" stroke-miterlimit="10.000001" d="M 359.276521 131.510321 L 331.195516 159.591327 " transform="matrix(0.998785, 0, 0, -0.998785, 0.000000000000012657, 841.323135)"/></g></g><g clip-path="url(#clip-88)"><g clip-path="url(#clip-89)"><path fill="none" stroke-width="0.85" vector-effect="non-scaling-stroke" stroke-linecap="butt" stroke-linejoin="miter" stroke="#19424e" stroke-opacity="1" stroke-miterlimit="10.000001" d="M 363.093661 135.327461 L 335.012655 163.408467 " transform="matrix(0.998785, 0, 0, -0.998785, 0.000000000000012657, 841.323135)"/></g><g clip-path="url(#clip-89)"><path fill="none" stroke-width="0.85" vector-effect="non-scaling-stroke" stroke-linecap="butt" stroke-linejoin="miter" stroke="#19424e" stroke-opacity="1" stroke-miterlimit="10.000001" d="M 366.9108 139.1446 L 338.829795 167.225606 " transform="matrix(0.998785, 0, 0, -0.998785, 0.000000000000012657, 841.323135)"/></g><g clip-path="url(#clip-89)"><path fill="none" stroke-width="0.85" vector-effect="non-scaling-stroke" stroke-linecap="butt" stroke-linejoin="miter" stroke="#19424e" stroke-opacity="1" stroke-miterlimit="10.000001" d="M 370.731851 142.965651 L 342.650845 171.046657 " transform="matrix(0.998785, 0, 0, -0.998785, 0.000000000000012657, 841.323135)"/></g></g><g clip-path="url(#clip-90)"><g clip-path="url(#clip-91)"><path fill="none" stroke-width="0.85" vector-effect="non-scaling-stroke" stroke-linecap="butt" stroke-linejoin="miter" stroke="#19424e" stroke-opacity="1" stroke-miterlimit="10.000001" d="M 374.54899 146.78279 L 346.467985 174.863796 " transform="matrix(0.998785, 0, 0, -0.998785, 0.000000000000012657, 841.323135)"/></g></g><g clip-path="url(#clip-92)"><g clip-path="url(#clip-93)"><path fill="none" stroke-width="0.85" vector-effect="non-scaling-stroke" stroke-linecap="butt" stroke-linejoin="miter" stroke="#19424e" stroke-opacity="1" stroke-miterlimit="10.000001" d="M 378.36613 150.59993 L 350.285124 178.680936 " transform="matrix(0.998785, 0, 0, -0.998785, 0.000000000000012657, 841.323135)"/></g></g><g clip-path="url(#clip-94)"><g clip-path="url(#clip-95)"><path fill="none" stroke-width="0.85" vector-effect="non-scaling-stroke" stroke-linecap="butt" stroke-linejoin="miter" stroke="#19424e" stroke-opacity="1" stroke-miterlimit="10.000001" d="M 382.183269 154.42098 L 354.106175 182.498075 " transform="matrix(0.998785, 0, 0, -0.998785, 0.000000000000012657, 841.323135)"/></g></g><path fill="none" stroke-width="0.85" vector-effect="non-scaling-stroke" stroke-linecap="butt" stroke-linejoin="miter" stroke="#19424e" stroke-opacity="1" stroke-miterlimit="22.925586" d="M 352.064631 165.700315 C 359.186568 165.700315 364.963121 159.927673 364.963121 152.801825 C 364.963121 145.679887 359.186568 139.907246 352.064631 139.907246 C 344.938782 139.907246 339.166141 145.679887 339.166141 152.801825 C 339.166141 159.927673 344.938782 165.700315 352.064631 165.700315 Z M 352.064631 165.700315 " transform="matrix(0.998785, 0, 0, -0.998785, 0.000000000000012657, 841.323135)"/></svg>