<svg xmlns="http://www.w3.org/2000/svg" fill-rule="evenodd" clip-rule="evenodd" viewBox="0 0 914 2013" fill="none" stroke="currentColor" stroke-linejoin="round"><clipPath id="doorStyle150Clip"><path d="M 0,0 914,0 914,2013 0,2013 Z M 439.1,406.5 570,237.3 700.9,406.5 570,575.7 Z M 439.1,1006.5 570,837.3 700.9,1006.5 570,1175.7 Z M 439.1,1606.5 570,1437.3 700.9,1606.5 570,1775.7 Z"></path></clipPath><g><path d="M 0,0 914,0 914,2013 0,2013 Z" style="stroke-width: 22.3667;"></path><path d="" clip-path="url(#doorStyle150Clip)" style="stroke-width: 11.1833;"></path><path d=" M 406.5,406.5 570,194.5 733.5,406.5 570,618.5 Z M 455.5,406.5 570,258.5 684.5,406.5 570,554.5 Z M 406.5,1006.5 570,794.5 733.5,1006.5 570,1218.5 Z M 455.5,1006.5 570,858.5 684.5,1006.5 570,1154.5 Z M 406.5,1606.5 570,1394.5 733.5,1606.5 570,1818.5 Z M 455.5,1606.5 570,1458.5 684.5,1606.5 570,1754.5 Z" fill="currentColor" style="stroke-width: 22.3667;"></path></g></svg>